<svg id="Layer_1" data-name="Layer 1" xmlns="http://www.w3.org/2000/svg" viewBox="0 0 680.67 262.33"><defs><style>.cls-1{fill:#231f20;}</style></defs><path class="cls-1" d="M285.94,100.73h0c-.11,0-2.73-.24-4.67,3.11a13,13,0,0,0-1.68,3.72.91.91,0,0,1-.79.86l-.17,0a2,2,0,0,1-1.64-.12c-.77-.47-1-1.41-1.31-2.6-.15-.59-.33-1.26-.58-2-.46-1.22-.88-2.94-.26-4.23a2.53,2.53,0,0,1,1.65-1.35c1.48-.42,8.93-2.4,10.4-.22.31.45.5,1.23-.28,2.43l-.25.37Zm128.91-35.4c.43,0,1.44-.15,1.92.6a2.49,2.49,0,0,1-.27,2.37,13.73,13.73,0,0,0-.61,1.43c-.16.45-.34,1-.89,1s-.76-.5-1-1.08c-.62-1.63-.73-2.83-.31-3.55a1.47,1.47,0,0,1,1.14-.72m19.27,33c-.15.7-.83.95-1.87,1.34-2.17.79-5.46,2-5.46,6.92a1.66,1.66,0,0,1-1,1.58,3.74,3.74,0,0,1-3.51-.57,1.07,1.07,0,0,1-.26-1.14c.69-1.83,1.1-4.6.57-5.21a1.62,1.62,0,0,0-1-.31,1.34,1.34,0,0,0-.85.77,2.08,2.08,0,0,0,.11,1.64,2.43,2.43,0,0,1-.53,2.4l-.11.12-.15.07c-4.23,1.79-6.47.27-7.06-.24a1.81,1.81,0,0,1-.8-1.6.88.88,0,0,1,.58-.7c4-1.34,4.57-3.8,5-5.78.27-1.27.53-2.46,1.69-2.89a3.49,3.49,0,0,0,1.45-.79,1.65,1.65,0,0,0-.54-.36c-4.63-2-8.33-2.38-11-1.21a7,7,0,0,0-3.61,4l-.06.16a10.06,10.06,0,0,0-.47,2.59c-.15,1.51-.3,2.94-1.22,3.58s-4-.53-4.78-1.39a1.16,1.16,0,0,1-.21-1.47c3.33-4.9,3.46-6.42,3.26-7.14A2.28,2.28,0,0,0,400.05,91a3.63,3.63,0,0,0-2,1.07,12.27,12.27,0,0,0-.14,3.49c.07,1.82.1,2.72-.25,3.21-.16.22-.31.48-.47.75-.6,1.06-1.43,2.52-3.63,2.23l-.34,0a38,38,0,0,0-7.06-.17,26.57,26.57,0,0,0-6.83,1.11,7.68,7.68,0,0,1-2.94.46,1.7,1.7,0,0,1-1.2-.7c-.53-.76-.35-1.79-.16-2.89.06-.35.12-.71.16-1.05a5.88,5.88,0,0,0-1.27.16c-.92.18-1.71.33-2.09-.32s.16-1.36.38-1.65a72.5,72.5,0,0,1,11.74-10.93,1.81,1.81,0,0,0,.78-1.29c-.94-.37-1.87-.88-2-1.79a1.83,1.83,0,0,1,1-1.65c1-.64,3.39.23,5,.91,7.33-4.9,15.68-14.64,21.1-22.21,1.22-1.71,2.28-1.51,2.68-1.35a2,2,0,0,1,1,2.07c-.06.6-.72,1.6-2.59,4.28a50.91,50.91,0,0,0-3.3,5.09,5.88,5.88,0,0,1,6.67,2.33A10.79,10.79,0,0,1,416,76.8h0a15.42,15.42,0,0,0,.32,1.59c.33,1.37.66,2.8-.32,3.78l-.16.18a1.86,1.86,0,0,1-1.76.83,2.6,2.6,0,0,1-1.56-1.25,1.73,1.73,0,0,1-.17-1.37c1-3.08.82-4.59.68-5.1a3.41,3.41,0,0,0-1.93-2c-1.15-.51-3.12-.77-6,.86-2.33,1.32-9.09,7-13.57,10.82-1.73,1.47-3.22,2.73-4.07,3.41h0c-.26.18-1.38,1-2.08,1.59-3,2.07-6,4.9-6.72,6.49.71-.29,1.94-.94,3.14-1.56,9.75-5.12,32.58-17.1,51.84,2.15a1.22,1.22,0,0,1,.4,1.12m-7.19-23.1c-.17.62-.86.94-2.36,1.1-1.89.21-7.58.22-8.89-2.33-.36-.69-.52-1.83.69-3.37,1.44-1.82,4.07-2,6.88-.44,2.19,1.21,4.16,3.33,3.68,5m-102.48,3.6c0,.85-.8,1.47-1.48,2l0,0,0,0c-.27.16-6.47,3.81-10.56.27A17.59,17.59,0,0,0,310.56,84c1.49-.73,3.71-1.45,4.91-.16a2.16,2.16,0,0,1,.54,2.56,3.44,3.44,0,0,1-3.48,1.44c-1.08-.23-1.83-.15-2.09.2-.35.5,0,1.86.43,2.61L311,91l-.14.34c-.14.32-.68,1.4-1.55,1.34s-1.21-1.2-1.32-1.56a19.23,19.23,0,0,1-.68-8.1,3.53,3.53,0,0,1-2-1.21c-2.21-2.62-1.54-8.47-1.52-8.72l.08-.64h.63c3.46,0,4.91,2.64,5.77,4.23a5,5,0,0,0,.72,1.14,5.38,5.38,0,0,0,1-1,5.54,5.54,0,0,1,4.49-2.56,5.93,5.93,0,0,1,4,1.34,3,3,0,0,0,1,.56,4.38,4.38,0,0,1,2.07,1.2c.11.11.21.21.33.31a1.52,1.52,0,0,1,.61,1.2M270.14,49.17l-.44,1-.3.64-.28.64-.48-.5-.24-.25a1.53,1.53,0,0,1-1.11-.65,3.29,3.29,0,0,1,0-3.56,2.49,2.49,0,0,1,3.2-.76c.46.18,1.7.65,1.61,1.79-.06.77-.73,1.33-2,1.66M309.2,97.82h0a92.35,92.35,0,0,0-12.94-2l-4.8-.15c-4.36-.12-7.25-.21-7.8-.31a1.07,1.07,0,0,1-.79-1.33c.18-1.41,2.51-4.86,11-3.91a51,51,0,0,1,6.73,1.27c1.06.26,2,.48,2.78.6,2.15.33,3.56.48,4.4.58a11,11,0,0,1,1.14.16c1.65.43,1.3,3.57,1.14,4.51l-.11.79Zm149.48-26.6c-7-3.9-22.45-2.7-25.6-3-9.18-.87-17.44-5.09-18.45-6.81-.14-4.34,5.58-6.51,7.23-7.49S427,52.73,428,53.4c1.25.83-.11,5.77,2.51,7.78,3.1,2.39,5.57,2,7.15,2.4s4.07,2.39,4.22,1.27-.86-7.64-2.22-10.1c-1.77-3.22-6.65-3.9-6.94-4.57s1.86-1.34,2.5-2.32c1.6-2.42-.19-4,.63-6,.5-1.24,1.13-2.35.66-2.4-2.68-.28-6.71,1.33-8.68,3.12a7.71,7.71,0,0,0-2.47,6.54c-.69,1.2-4.1,2-6.58,2.17-.49,0,1.9-7.22,2-8.08a20.89,20.89,0,0,0,.78-10.33c-.38-2.42-1.36-4.78-1.25-5.39.31-1.8,5.33-1.55,5.33-.75,0,3.66.34,5.19.71,6.14.47,1.25.29,1.22,1.73,2.09,3.2,2,9.56,1.12,13.16,3,.71.37-.63-3.71-1.35-5A29.17,29.17,0,0,0,437,28.27c-3.94-4.57-6-2.7-8.47-3.77-.18-.08,3.94-6.06,3.29-9.28s-1.71-5.68-3.43-6.88c-.83-.58-8.19,6.55-8.37,9.42-.3,5.2,2.21,4.18,1.41,5.85a2.59,2.59,0,0,1-2.28,1.14c-2.54-4-3.77-6.18-5.06-8.18-2.62-4.05,1.25-7.93-.43-11.23C410.44-.95,407.16.09,405.2,0S397.92,2.4,399,3.69c1.82,2.19,2.65,2.84,1.9,4.79,0,0-3,.75-5.07-.37s-3.22-4.34-9.65-2.85c-3.18.74-7,8.84-7.3,10.26-.35,1.78,1.7-.55,3.58.3,1.64.75,3.64,1.67,5.65,1.5,4.43-.38,6.5-5.54,7.08-6.22s2.43-.59,2.14-.07c-1.53,2.81-1.83,5.74.57,5.84,1.93.07.14-5.39,5-4.64S407.77,17,407.77,17s-6-1.2-7.29.6,5.08,4,4.14,7.48c-.28,1-3.26-1.19-6-.44-2.5.67-7.75,5.46-5.71,7.11.62.5,1.57-.7,3.72.82,2,1.41,2.42,2.43,4.5,1.87,4.72-1.27,4.41-3.92,5.86-5.61a2,2,0,0,1,3-.16c.43.6,1.14.9-.07,1.58s-3.73,1.87-4.58,4.64-1,7.19-.14,8,3-2.47,5.43-2.24c6,.54,5-11.38,5.95-9.11,2.2,5,.65,14.1-.44,13.72-3.77-1.28-5.83-.42-5.36,1.27,1.15,4.2,3.19-.28,4.64,3,.62,1.4-3.68,9.06-4.29,6.91-1-2-11.29-14.67-14.33-17.14a77.69,77.69,0,0,0-15.92-17.52c-7.15-5.69-16.3-12.58-27.46-12.58-20.89,0-31.48,13.74-32.6,14.38-2.46,1.39-2.55,3.12-7.15,3.74-12.57-1.14-24.9-9-44.5,5.84h.17a59.57,59.57,0,0,0-12.55,15.14,35.51,35.51,0,0,0-2,3.27c-.53,1.39.36,3.68,1,5,1.86,4.08,7,6.54,9.72,9.27a7.6,7.6,0,0,1,.74.82c1.71,2.55,9.44,2.1,10.44,2.7C284.24,74,292,74.8,293.65,76c1.12.81.14,4.2-1.36,5s-5.22,1.42-10.94,2.1-4.72,6.14-6.58,5.17c-2.41-1.27-9-4.25-9-4.25-.36-.9,2.16-3.58,1.57-6.16-.48-2.16-3.28-3.44-4.51-4.57s-1.14-3.51-1.56-3.44c-5.12.89-1.69,10.65-3.17,10.65-.71,0-5.83-6.48-5.9-6.71-.27-.88,2.79,0,4.27-4.39.81-2.34-.87-5.31-2.38-7.32-1.72-2.32-.13-2.92-.69-3.38-.09,0-7.11,4.61-6.24,10.23a24.45,24.45,0,0,1-3.84-3.42c-.48-.51,3.14-3.92,2.57-8.09-.44-3.29-2.4-6-7-8.72-3-1.76-1.23-4.47-3.47-3-1.21.83-4.49,8.68-2.86,13.18,2.19,6,6,5.47,5.94,6.29-5.3.22-11.44,9.35-10.66,9.65s1.23-1,2.73,0c3.26,2.11,4.87,2.57,7.36,2.45,2-.09,4.54-2.36,6.79-2.47,1.52-.06,5.74,6,5.74,6-9.89-.72-14.34.4-14.88-2-.21-.94-1.84-1.16-2.52-.61-1,.81-1.13,3.3-3.57,3.3-3.09,0-3.37-2.53-3.79-2.93-1.8-1.68-10.69-3.54-8.94,7.87.43.6,2.78-2.75,4.88-1.45-.17-.11-1.39,3.2-1.45,6.39,0,2.64,2.59,7.14,3.86,8.08l3.15-4.06c2.52-1.77,6-2.26,7.08-4,2-3.07-2.15-6.21-.21-6.74a38,38,0,0,1,15.84-.52c3.26.62,2.34,1.12,2.34,1.12C249,87,250.86,88.78,245.33,89c-2.74.12-2.84-4.26-5-3.29-4.11,1.82-.64,4.46-.42,5.14s1.57.84,2.43,1.9-1.15,3.44-1.29,3.29a7.58,7.58,0,0,0-5.21.56c2-1-1.93,0-3.65,4.08-2.55,6.07,2.28,14.38,2.28,14.38,1.19-.13,8.75-7.1,9.82-11.21s-.62-5.51-1-7.25h.12c.37-1.52.83-1.73,1.75-2.66s3-1.61,2.94-1.32c-.95,3.74-.64,8.49.39,8,2-.85,3.9-2.87,5.09-4,4-4,2.24-9.24,3.31-10.49s5.11,1,6.87,1.82c1,.51,8.8,3.81,9.58,7.11.16.71-1.34,1.29-2.18,1.54-2.7.86-6.58.49-6.69,0a.08.08,0,0,0,0,0c-.15-.44-.67.75-.94-1.25-.12-.82.38-1,.17-1.93-.25-1.08-2.36-.67-3.15-.23a3.41,3.41,0,0,0-1.21,4.2c.75,1.49,3.14.46,3.81,2.39-.08-.2.28,1.69-2.19,1.77-4,.12-4.48-.18-5.41,0-2.53.56-3.87,1.72-4.51,2.92-1.4,2.6-3.29,7.63-2.43,8a24.62,24.62,0,0,0,8.51.45c2.43-.53,4-3.84,4.76-8.72a13.74,13.74,0,0,1,8.25-3.76c.74-.06.21,5.95-.22,6-6.32,1.2-5.24,5.77-8,7.34-.45.24,2.86,4.19,7.87,3.14,1.39-.3,4.53-1.83,3.43-.15-3.36,5.09,8.43,11.68,8.86,9.88s-.64-7.64-5.79-10.11c-2.88-1.38,3-6.23,4.08-2.32.43,1.5,5.86,7.19,9.29,5.09A13,13,0,0,1,290.79,108c.56-.89.29-5.38-1.72-6s5.43-5.69,14.88-2.4c.95.33.88,2.91,0,3.07-7.52,1.35-4,9.06-4,9.06,7.16-.86,5.79-9.59,6.08-10.5s3.65-1.33,3.93.47-1.93,2.09-2.57,3.89c-1.3,3.6,2.86,3.3,3.28,3,2.37-1.65,3.46-6,3.29-6,10.64.31,12.91,9.92,12.59,9.57,1.19,1.26,4.79-2.14,4-3.28-5.88-8.58-11-9.47-11.3-9.81-.94-1,1.1-1.6,1.25-2.51.43-1.72.19-3.41-1.1-3.93s-1.36-.45-2.58.16-.85,2.46-1.64,2.83S310.81,93,311,91.88c.24-1.93,4.9-2.2,5.94-1.43,1.5,1.13,13.94,1.8,17.66.83,2.55-.67,4.08,0,3-2.47-.94-2.21-3.33-14.69-.14-21.91C342,56.56,346.28,53.75,350.66,50c1.58-1.37.48,2.24.48,2.24-25.06,21.63-7.18,39.85-9.73,40.58-2.19.63-4.86.93-7.29,1.61A27.38,27.38,0,0,0,327.87,97c-2.38,2.65.81,8.61,4.25,8.19,13.64-1.64,13.66-3.21,15.66-3.21,20,0,19.06-4.67,20.52-2.63,2.23,3.13-16.08,10.81-16.95,10.92-1,.31-1,.58-1.5,0l.52-2.13a2,2,0,0,0-.82-1.94,1.07,1.07,0,0,0-1.45,0c-1.12.85-1.37,3.79-2.14,4.62-10,10.57-41.73,8.27-41.73,8.27s-2,4.5,0,4.5c26,0,39.76-7.49,48-10.48s6.06,2.5,7.15,3.06c2.89,1.48,5.22-4.19,5.22-4.19s11.08,1.42,11.37,2.32c1.89,5.93,17.67,6.8,17.78,2l-1.33-.92c-7.28-12.74-13.8-3-15.23-3.32-5.72-1.2-9.28-1.57-11.28-2.77-1.16-.7,5.92-3.67,7.84-1.95s-.23,1.85,2.15,2.45c1.22.32,4.07-2.26,4.65-3.86.28-.81,17.54-1.9,17.54-.11,0-.64-1.49,7.1,3.77,9.76,1.61.82,1.07,4,2,4.11,3.27.27,6.54-5.38,6.66-11.75.06-3.37,15.52,9.13,13.23,11.15-6.3,5.54.71,11.61.71,11.68s5.15-3.44,2.29-11.53c0,0,2.15-1,2.15.75,0,10.69,15.15,6.59,14.86,5.69-3-9.52-8.79-9.95-13.15-8.39s-7.44-5.76-7.44-5.76,13.7-.5,15.16,1.87c1.29,2.1,3.72,4.87,8.22,4.35s9.59-7.79,9.3-10.34c-.15-1.34-2.23.77-4.29-.59-2.75-1.82-7.94-1.32-8.51-1-2.35,1.14-2.78,2.24-4,3.29-1.42,1.22-1.93,1-2.43.16.15.26,4.29-5.24,3.14-9.44a28.23,28.23,0,0,0,15.67-.71c9-3.06,10.65-10,10.79-15.31.09-3.15-.57-8.68-7.58-12.57M442.26,20.83c-1.36-1.27-1.53-1.94-4.1-2-2.24-.06-6.37,1.88-5.08,3.9,5.46,8.56,12.66,1.25,12.3-.6-.14-.75-2-.24-3.12-1.28m3.33,32c2.71-.24,5.87-3.89,5.22-4a5.27,5.27,0,0,1-2-.23c-.93-.37-.72-1.43-3.64-2.4-2.49-.82-6.57.74-8.23,3.15-.92,1.34,4.43,3.81,8.65,3.44m-70.71,75.9c2.83.71,10.82-10.49,2.57-10.78,0,0-5-.32-2.93,5.24.53,1.42.36,5.54.36,5.54m8.43-7.18c1.43-.75,5.59,2,5.87,5.24s-8.73-3.74-5.87-5.24"/><path class="cls-1" d="M6.26,220.05c0-12.77-6.26-7.5-6.26-12.6,0-4.54,6.43-5.11,9.72-5.11,1.74,0,3.38.16,5.11.24a50,50,0,0,0,5,.33c2.64,0,5.28-.16,8-.33s5.35-.24,8-.24c9.31,0,20.11,4.12,20.11,15.08,0,4.94-2.39,9.72-7,12-.74.41-1.32.66-1.32,1.64,0,1.24,1.08,1.57,2.06,2,5.77,2.15,8.33,5.94,9.48,14.84,1,7.66,6.35,3,6.35,8.07,0,3.14-3.79,6.43-13.11,6.43-13.18,0-14.83-7.58-17.38-18.46-.91-3.79-2.31-7.5-6.84-7.5-1.82,0-2.48.25-2.48,5.44a51.57,51.57,0,0,0,.58,8c.66,3.8,4.86,2.64,4.86,6.6,0,3-2.06,5.19-15.41,5.19-4,0-15.66,0-15.66-6,0-4.28,6.18-1.31,6.18-12Zm19.12,3.63c-.16,2.14-.57,4,2.15,4,5.35,0,7.08-3,7.08-8.08,0-4-1-8.16-5.77-8.16-3.05,0-3,1.9-3.13,4.45Z"/><path class="cls-1" d="M68.08,231.59c0-17.47,13.92-29.83,31.89-29.83,22.75,0,31.48,20,31.48,30.66,0,17.72-15.66,29.42-32.47,29.42C81.59,261.84,68.08,249.15,68.08,231.59ZM96.18,214c-4.62,0-6.92,4.78-6.92,8.82,0,7,4.94,26.7,13.84,26.7,5,0,7.17-4.37,7.17-8.82C110.27,233.24,105.82,214,96.18,214Z"/><path class="cls-1" d="M135.49,231.59c0-17.47,13.93-29.83,31.9-29.83,22.74,0,31.48,20,31.48,30.66,0,17.72-15.66,29.42-32.47,29.42C149,261.84,135.49,249.15,135.49,231.59ZM163.6,214c-4.62,0-6.93,4.78-6.93,8.82,0,7,5,26.7,13.85,26.7,5,0,7.17-4.37,7.17-8.82C177.69,233.24,173.24,214,163.6,214Z"/><path class="cls-1" d="M242,202.91a29.17,29.17,0,0,0,6.43-.57,10,10,0,0,1,3.38-.58c3.21,0,9.89,6.34,9.89,15.25,0,4.12-2.14,6.83-6.35,6.83-7.17,0-7.08-9.72-11.29-9.72-3.21,0-2.88,4.45-2.88,5.11v25.3c0,9.81,7.58,5.11,7.58,10.88,0,2.55-1.56,6.18-17,6.18-4.2,0-19.61.17-19.61-6.18,0-4.37,5.11-2.64,6.76-5.77.82-1.73,1.15-6.67,1.23-8.74l.66-18.21c.33-8.65-1.4-8.57-2.55-8.57-3.71,0-5.52,9.72-12.2,9.72-3.21,0-5.11-3-5.11-5.93,0-7,5.94-16.15,10.63-16.15a21.4,21.4,0,0,1,3.05.58,43.26,43.26,0,0,0,7.09.57Z"/><path class="cls-1" d="M265,221c0-8.57,8.24-19.2,24.23-19.2,5.27,0,11.21,2.31,12.44,2.31s2.31-1.16,4-1.16c2.8,0,9.07,6.35,9.07,13.27,0,2.8-1.82,5.61-4.86,5.61-5.53,0-8.74-9.4-17.31-9.4-2.56,0-5.28,1.15-5.28,4.12,0,6.51,11.29,4.78,20.85,11.13,5.11,3.37,7.67,7.5,7.67,13.68,0,9.64-7.91,20.52-27.11,20.52-5.44,0-14.76-1.4-19.45-4-4-2.22-5.86-11-5.86-15.16,0-2.23,1-4.45,3.47-4.45,5.85,0,4.86,13.1,20,13.1,1.82,0,6.35-.9,6.35-4,0-5.93-11.29-4.45-20.44-11.78C268.27,231.92,265,226.89,265,221Z"/><path class="cls-1" d="M382.35,231.06a18.59,18.59,0,0,1,3.9,3.28,12.85,12.85,0,0,1,2.41,4,15.62,15.62,0,0,1,.83,5.39,15.4,15.4,0,0,1-1.41,6.64,14.34,14.34,0,0,1-4,5.1,18.81,18.81,0,0,1-6.3,3.27,27.54,27.54,0,0,1-8.33,1.16,43.51,43.51,0,0,1-8.38-.78,19.09,19.09,0,0,1-5.89-1.95,4.39,4.39,0,0,1-1.16-1.08,3,3,0,0,1-.58-1.58,59.87,59.87,0,0,0-.58-6,30.16,30.16,0,0,1-.42-3.65,2,2,0,0,1,.54-1.41,2.25,2.25,0,0,1,1.7-.58,1.9,1.9,0,0,1,2.16,1.74,21.66,21.66,0,0,0,1,3.86,14.82,14.82,0,0,0,1.74,3.44,8.47,8.47,0,0,0,3.85,2.74,16.69,16.69,0,0,0,6.43,1.16q5.48,0,8.38-2.45a8.18,8.18,0,0,0,1.24-11.19,14.83,14.83,0,0,0-5.39-4.19l-8-4.23a39,39,0,0,1-5.23-3.32,18.87,18.87,0,0,1-3.56-3.52,13.08,13.08,0,0,1-2.08-4.07,16.78,16.78,0,0,1-.66-4.85,13.22,13.22,0,0,1,1.49-6.34,14.42,14.42,0,0,1,4.07-4.73,18.26,18.26,0,0,1,6.05-2.95,26.85,26.85,0,0,1,7.38-1,35.56,35.56,0,0,1,6.93.54c1.74.36,3.22.7,4.44,1,2,.55,3,1.43,3.15,2.65.05.55.12,1.31.2,2.28s.17,1.94.25,2.9.16,1.84.21,2.61.08,1.22.08,1.33a1.58,1.58,0,0,1-.54,1.33,2.14,2.14,0,0,1-1.36.41,2.44,2.44,0,0,1-1.66-.45,2.3,2.3,0,0,1-.67-1.2,17.58,17.58,0,0,0-.87-3.32,11.49,11.49,0,0,0-1.53-3,8.31,8.31,0,0,0-3.19-2.28,13.32,13.32,0,0,0-5.19-.87c-3.92,0-6.76.78-8.5,2.32a7.54,7.54,0,0,0-2.61,5.89,7.41,7.41,0,0,0,1.57,4.52,16.06,16.06,0,0,0,5.23,4.11l7.55,4.14C379,229,380.81,230.07,382.35,231.06Z"/><path class="cls-1" d="M423.53,251.51a7.11,7.11,0,0,0,.71,2.28q.74,1.41,3.9,1.41l.95,0,1.12,0a1.12,1.12,0,0,1,.87.46,2.11,2.11,0,0,1,.37,1.37,2.4,2.4,0,0,1-.37,1.57,1.33,1.33,0,0,1-1,.42c-1.38,0-3-.09-5-.25s-4.18-.25-6.72-.25-4.83.08-6.84.25-3.47.25-4.36.25a1.58,1.58,0,0,1-1-.38c-.31-.24-.46-.78-.46-1.61a2.11,2.11,0,0,1,.37-1.37,1.06,1.06,0,0,1,.79-.46l1,0c.47,0,.81,0,1,0a6.71,6.71,0,0,0,2.53-.46,2.77,2.77,0,0,0,1.54-1.29,7.55,7.55,0,0,0,.54-2.15,41.41,41.41,0,0,0,.2-4.81V212c0-1.72-.24-2.74-.74-3.07a4.37,4.37,0,0,0-2.2-.62c-1-.09-2.23-.13-3.61-.13a21.24,21.24,0,0,0-4.31.33,5.66,5.66,0,0,0-2.65,1.41,5.58,5.58,0,0,0-1.62,2.82,38.12,38.12,0,0,0-.87,3.82c-.11.94-.78,1.41-2,1.41a2.55,2.55,0,0,1-1.21-.29,1,1,0,0,1-.53-1c0-.44,0-1.1.08-2s.12-1.85.21-2.9.16-2.13.24-3.23.13-2.08.13-2.91a1.85,1.85,0,0,1,.46-1.32,1.41,1.41,0,0,1,1.11-.5c.39,0,.93,0,1.62.08s1.83.11,3.4.17,3.73.11,6.47.16,6.4.09,11,.09q7.38,0,11.65-.09l6.51-.12c1.5,0,2.52-.07,3.07-.13s1-.08,1.49-.08a1.8,1.8,0,0,1,1.21.46,1.69,1.69,0,0,1,.54,1.37c0,.77,0,1.73,0,2.86s.07,2.25.12,3.36.1,2.08.13,2.94,0,1.34,0,1.45a1.35,1.35,0,0,1-.54,1.25,2.6,2.6,0,0,1-1.37.33c-1.16,0-1.8-.44-1.91-1.33-.22-1.55-.47-2.87-.74-4a5.45,5.45,0,0,0-1.33-2.57,5.15,5.15,0,0,0-2.7-1.53,22.44,22.44,0,0,0-4.76-.38c-1.78,0-3.16,0-4.15,0a3.44,3.44,0,0,0-2,.46,1.79,1.79,0,0,0-.58,1,11,11,0,0,0-.17,2.28V246.4A32.47,32.47,0,0,0,423.53,251.51Z"/><path class="cls-1" d="M501.7,230.56a37.2,37.2,0,0,1-1.78,11.74,26.55,26.55,0,0,1-5.27,9.29,23.71,23.71,0,0,1-8.71,6.14,30.87,30.87,0,0,1-12,2.19,31.41,31.41,0,0,1-11.45-2,24.79,24.79,0,0,1-8.79-5.64,25.18,25.18,0,0,1-5.64-8.75,30.56,30.56,0,0,1-2-11.23,32.68,32.68,0,0,1,2-11.66,27.38,27.38,0,0,1,5.81-9.29,26.33,26.33,0,0,1,9-6.13,30.09,30.09,0,0,1,11.73-2.2A30.41,30.41,0,0,1,486,205a23.78,23.78,0,0,1,8.5,5.6,24.25,24.25,0,0,1,5.35,8.67A32.22,32.22,0,0,1,501.7,230.56Zm-10.62,1.5a40.75,40.75,0,0,0-1.32-11,24.42,24.42,0,0,0-3.61-7.8A14.79,14.79,0,0,0,473.92,207,16,16,0,0,0,467,208.5a14.54,14.54,0,0,0-5.43,4.56,23.37,23.37,0,0,0-3.57,7.68,40.7,40.7,0,0,0-1.28,10.82,37.42,37.42,0,0,0,1.37,10.78,22.31,22.31,0,0,0,3.73,7.55,15.23,15.23,0,0,0,5.6,4.48,16.44,16.44,0,0,0,7,1.49,16.07,16.07,0,0,0,6.8-1.41,13.84,13.84,0,0,0,5.27-4.31,21.39,21.39,0,0,0,3.4-7.38A41.81,41.81,0,0,0,491.08,232.06Z"/><path class="cls-1" d="M524.34,246.82a29.7,29.7,0,0,0,.29,5,4.18,4.18,0,0,0,1,2.23,3,3,0,0,0,1.41,1,10.81,10.81,0,0,0,2.57.21c.17,0,.45,0,.83,0l.75,0a1.74,1.74,0,0,1,1.16.42,2,2,0,0,1,.5,1.57,1.72,1.72,0,0,1-.5,1.45,1.76,1.76,0,0,1-1.08.38c-.22,0-.77,0-1.66-.09s-1.95-.11-3.19-.16l-4-.17c-1.41-.05-2.75-.08-4-.08-.83,0-1.77,0-2.82.08l-3,.17c-1,.05-1.82.11-2.57.16s-1.2.09-1.37.09c-.88,0-1.33-.61-1.33-1.83a2.2,2.2,0,0,1,.42-1.57,1.17,1.17,0,0,1,.83-.42l.74,0c.34,0,.61,0,.83,0a6,6,0,0,0,2.7-.5,2.83,2.83,0,0,0,1.28-1.16,4.23,4.23,0,0,0,.29-.79,10.2,10.2,0,0,0,.25-1.2,14.5,14.5,0,0,0,.17-1.91c0-.77,0-1.71,0-2.82V217c0-2.15-.06-3.87-.16-5.14a6.15,6.15,0,0,0-.67-2.65,2.77,2.77,0,0,0-1.33-1.08,7.7,7.7,0,0,0-2.65-.33,5.69,5.69,0,0,0-.7,0,5.3,5.3,0,0,1-.63,0,1.14,1.14,0,0,1-1.12-.58,3.38,3.38,0,0,1-.29-1.49,1.86,1.86,0,0,1,.46-1.46,1.43,1.43,0,0,1,.87-.37c.22,0,.66,0,1.33.08s1.48.12,2.44.17l3.24.17c1.19,0,2.42.08,3.69.08.61,0,1.42,0,2.45-.08s2.11-.1,3.27-.13,2.31-.07,3.44-.12,2.12-.09,2.95-.09a43.39,43.39,0,0,1,9.45.88,17.43,17.43,0,0,1,6.35,2.61,10,10,0,0,1,3.52,4.31,15.13,15.13,0,0,1,1.08,5.89,14,14,0,0,1-3,9q-3,3.76-10,5.6c-.44.11-.66.3-.66.58,0,.11.22.27.66.49a12.9,12.9,0,0,1,3.36,2.53,28.77,28.77,0,0,1,2.61,3.2c1.16,1.65,2.18,3.14,3.07,4.43s1.68,2.45,2.4,3.45,1.4,1.88,2,2.65,1.25,1.52,1.86,2.24a11.67,11.67,0,0,0,3.15,2.86,5.31,5.31,0,0,0,2.33.62,6,6,0,0,0,.83-.08,5.51,5.51,0,0,1,1-.08,1.34,1.34,0,0,1,1,.45,2,2,0,0,1,.46,1.45,1.76,1.76,0,0,1-.37,1.33,2.69,2.69,0,0,1-.79.5,11.37,11.37,0,0,1-1.87.29c-.85.08-1.75.12-2.69.12a22.34,22.34,0,0,1-7.09-.95,15,15,0,0,1-5.35-3.36,14.23,14.23,0,0,1-1.66-1.82c-.61-.78-1.22-1.62-1.83-2.53s-1.19-1.86-1.74-2.82l-1.49-2.62c-1.44-2.59-2.57-4.59-3.4-6a20.44,20.44,0,0,0-2.07-3,7.54,7.54,0,0,0-1.62-1.5,5.94,5.94,0,0,0-2-.74,9.87,9.87,0,0,0-1.58-.21c-.55,0-1,0-1.41,0a1.65,1.65,0,0,0-1.12.33,2.06,2.06,0,0,0-.37,1.49Zm0-20.24c0,1.44.3,2.38.91,2.82a5.09,5.09,0,0,0,1.53.46,10.24,10.24,0,0,0,1.79.21q13.26,0,13.27-11.53a11.45,11.45,0,0,0-1-5,8.76,8.76,0,0,0-2.57-3.23,10.15,10.15,0,0,0-3.81-1.78,19.64,19.64,0,0,0-4.69-.54h-2.32a8.53,8.53,0,0,0-1.82.16,1.44,1.44,0,0,0-1,.5,2.68,2.68,0,0,0-.33,1.58Z"/><path class="cls-1" d="M582.23,251.34a8,8,0,0,0,.74,2.45,2.42,2.42,0,0,0,1.29,1.07,7.18,7.18,0,0,0,2.53.34c.16,0,.4,0,.7,0l.71,0a1.05,1.05,0,0,1,1,.58,2.7,2.7,0,0,1,.29,1.25,3.84,3.84,0,0,1-.24,1.32,1,1,0,0,1-1.08.67c-.22,0-.68,0-1.37-.09s-1.55-.11-2.57-.16l-3.4-.17c-1.25-.05-2.5-.08-3.78-.08s-2.51,0-3.73.08l-3.36.17c-1,.05-1.88.11-2.57.16s-1.15.09-1.37.09c-.88,0-1.32-.67-1.32-2a2.43,2.43,0,0,1,.33-1.29,1,1,0,0,1,.83-.54c.22,0,.5,0,.83,0s.61,0,.83,0a6.75,6.75,0,0,0,2.48-.42,2.72,2.72,0,0,0,1.5-1.16,7.74,7.74,0,0,0,.58-2.53c.11-1.13.16-2.78.16-4.93V216.71c0-2.15,0-3.78-.16-4.89a8.68,8.68,0,0,0-.58-2.57c-.56-1.05-1.83-1.58-3.82-1.58-.22,0-.52,0-.91.05l-.91,0c-.78,0-1.16-.61-1.16-1.83s.5-2,1.49-2c.22,0,.69,0,1.41.08s1.59.12,2.61.17l3.36.17c1.22,0,2.46.08,3.73.08s2.5,0,3.69-.08l3.28-.17c1-.05,1.82-.11,2.49-.17s1.08-.08,1.24-.08a1.27,1.27,0,0,1,1.2.5,2.55,2.55,0,0,1,.29,1.33,3.71,3.71,0,0,1-.24,1.41,1.06,1.06,0,0,1-1.08.58l-.71,0c-.3,0-.54-.05-.7-.05a7,7,0,0,0-2.49.34,2.9,2.9,0,0,0-1.33,1.07,6,6,0,0,0-.78,2.45,35.3,35.3,0,0,0-.29,5.35v29.19A31.28,31.28,0,0,0,582.23,251.34Z"/><path class="cls-1" d="M633.23,258.93c-2,0-3.86,0-5.6-.09s-3.54-.09-5.39-.12l-5.89-.12q-3.11-.09-7.09-.09c-1.27,0-2.71,0-4.31.09l-4.56.12q-2.16,0-3.78.12c-1.07.06-1.72.09-1.94.09a1.53,1.53,0,0,1-.88-.33c-.3-.22-.45-.75-.45-1.58,0-1.27.41-1.91,1.24-1.91l.87,0c.42,0,.74,0,1,0a5.41,5.41,0,0,0,2.49-.46,3.12,3.12,0,0,0,1.24-1.2,5.69,5.69,0,0,0,.58-2.28c.11-1.08.17-2.67.17-4.77V216q0-5.47-.83-6.8a3,3,0,0,0-1.29-1.08,6,6,0,0,0-2.53-.42c-.22,0-.51,0-.87.05l-.7,0a1.05,1.05,0,0,1-1.08-.54,3,3,0,0,1-.25-1.29,2.28,2.28,0,0,1,.41-1.53,1.29,1.29,0,0,1,1-.46l2.07.08c1.16.06,2.53.1,4.11.13l4.89.12c1.69.06,3.16.09,4.44.09q4.56,0,7.71-.05c2.1,0,4-.06,5.6-.12s3.09-.1,4.39-.12,2.67,0,4.11,0c1,0,1.49.64,1.49,1.91,0,.83,0,1.8,0,2.91s.06,2.15.09,3.15,0,1.86.08,2.61,0,1.17,0,1.29c0,1-.61,1.49-1.82,1.49a1.77,1.77,0,0,1-1.41-.42,2,2,0,0,1-.42-1,18.45,18.45,0,0,0-.58-3.69,5.59,5.59,0,0,0-1.41-2.45,5.24,5.24,0,0,0-3.15-1.41,44.76,44.76,0,0,0-5.39-.25h-4a36.22,36.22,0,0,0-3.73.17,1.56,1.56,0,0,0-1.12.54,2.58,2.58,0,0,0-.38,1.61v15.93c0,.88.24,1.44.71,1.66a6,6,0,0,0,2.36.33,28.06,28.06,0,0,0,3.82-.25,23.26,23.26,0,0,0,2.65-.5,3.5,3.5,0,0,0,1.78-1.62,12.11,12.11,0,0,0,1.12-4.18c.17-.89.8-1.33,1.91-1.33a2.53,2.53,0,0,1,1.2.29,1.15,1.15,0,0,1,.54,1.12c0,.16,0,.55-.08,1.16s-.11,1.33-.17,2.16-.11,1.71-.16,2.65-.08,1.85-.08,2.74c0,1.44,0,2.9.12,4.39s.12,2.63.12,3.4a1.31,1.31,0,0,1-.33.83,1.64,1.64,0,0,1-1.33.42,2.09,2.09,0,0,1-1.45-.38,1.53,1.53,0,0,1-.45-.87,9.36,9.36,0,0,0-1-4.1,5.27,5.27,0,0,0-1.41-1.54,7.9,7.9,0,0,0-2.82-.58c-1.38-.11-2.79-.16-4.23-.16a4.27,4.27,0,0,0-2.24.41,1.85,1.85,0,0,0-.58,1.58V248a23.43,23.43,0,0,0,.13,2.45,4.5,4.5,0,0,0,.54,1.95,3.62,3.62,0,0,0,1.24,1.16,7.38,7.38,0,0,0,1.87.66,15.94,15.94,0,0,0,2.78.33c1.1.06,2.46.09,4.06.09q6.63,0,9-1.5a7.7,7.7,0,0,0,2.65-3,28.8,28.8,0,0,0,1.74-4.27,3.13,3.13,0,0,1,.46-.78,1.23,1.23,0,0,1,1-.38,3.51,3.51,0,0,1,1.58.33,1.14,1.14,0,0,1,.66,1.08,10.8,10.8,0,0,1-.25,1.7c-.16.86-.37,1.82-.62,2.86s-.49,2.11-.74,3.16-.49,1.9-.71,2.57a6.61,6.61,0,0,1-1,1.82A1.94,1.94,0,0,1,633.23,258.93Z"/><path class="cls-1" d="M673.54,231.06a19.11,19.11,0,0,1,3.9,3.28,12.83,12.83,0,0,1,2.4,4,15.62,15.62,0,0,1,.83,5.39,15.4,15.4,0,0,1-1.41,6.64,14.42,14.42,0,0,1-4,5.1,18.86,18.86,0,0,1-6.31,3.27,27.54,27.54,0,0,1-8.33,1.16,43.58,43.58,0,0,1-8.38-.78,19.19,19.19,0,0,1-5.89-1.95,4.55,4.55,0,0,1-1.16-1.08,3.08,3.08,0,0,1-.58-1.58,59.87,59.87,0,0,0-.58-6,29.44,29.44,0,0,1-.41-3.65,2,2,0,0,1,.54-1.41,2.24,2.24,0,0,1,1.7-.58,1.89,1.89,0,0,1,2.15,1.74,22.54,22.54,0,0,0,1,3.86,14.82,14.82,0,0,0,1.74,3.44,8.46,8.46,0,0,0,3.86,2.74,16.6,16.6,0,0,0,6.42,1.16q5.47,0,8.38-2.45a8.18,8.18,0,0,0,1.24-11.19,14.83,14.83,0,0,0-5.39-4.19l-8-4.23a38.88,38.88,0,0,1-5.22-3.32,18.65,18.65,0,0,1-3.57-3.52,12.84,12.84,0,0,1-2.07-4.07,16.44,16.44,0,0,1-.67-4.85,13.11,13.11,0,0,1,1.5-6.34,14.39,14.39,0,0,1,4.06-4.73,18.26,18.26,0,0,1,6.05-2.95,27,27,0,0,1,7.39-1,35.52,35.52,0,0,1,6.92.54c1.74.36,3.22.7,4.44,1,2,.55,3,1.43,3.15,2.65l.21,2.28c.08,1,.16,1.94.25,2.9s.15,1.84.2,2.61.09,1.22.09,1.33a1.58,1.58,0,0,1-.54,1.33,2.17,2.17,0,0,1-1.37.41,2.44,2.44,0,0,1-1.66-.45,2.29,2.29,0,0,1-.66-1.2,19.23,19.23,0,0,0-.87-3.32,11.82,11.82,0,0,0-1.54-3,8.23,8.23,0,0,0-3.19-2.28A13.28,13.28,0,0,0,665,207c-3.92,0-6.75.78-8.5,2.32a7.54,7.54,0,0,0-2.61,5.89,7.42,7.42,0,0,0,1.58,4.52,16,16,0,0,0,5.22,4.11l7.55,4.14C670.22,229,672,230.07,673.54,231.06Z"/></svg>