<svg id="Layer_1" data-name="Layer 1" xmlns="http://www.w3.org/2000/svg" viewBox="0 0 208 147"><defs><style>.cls-1{fill:#163029;}</style></defs><path class="cls-1" d="M138.8,96.5c1.2-.6,4.6,1.5,4.9,4.1S136.4,97.7,138.8,96.5Zm-7,5.7c2.3.6,9-8.3,2.1-8.5,0,0-4.2-.3-2.4,4.1A19.33,19.33,0,0,1,131.8,102.2Zm58.6-60.1c2.2-.2,4.9-3.1,4.3-3.1a5.88,5.88,0,0,1-1.7-.2c-.8-.3-.6-1.1-3-1.9-2.1-.7-5.4.6-6.8,2.5C182.5,40.4,186.9,42.4,190.4,42.1Zm-2.8-25.3c-1.1-1-1.3-1.5-3.4-1.6-1.9-.1-5.3,1.5-4.2,3.1,4.5,6.8,10.5,1,10.2-.5C190.1,17.2,188.6,17.6,187.6,16.8Zm13.7,39.8c-5.8-3.1-18.6-2.1-21.2-2.4-7.6-.7-14.5-4-15.3-5.4-.1-3.4,4.6-5.2,6-5.9s4.3-.9,5.1-.4c1,.7-.1,4.6,2.1,6.2,2.6,1.9,4.6,1.6,5.9,1.9s3.4,1.9,3.5,1a23.94,23.94,0,0,0-1.8-8c-1.5-2.6-5.5-3.1-5.8-3.6s1.5-1.1,2.1-1.8c1.3-1.9-.2-3.2.5-4.7.4-1,.9-1.9.6-1.9a11.08,11.08,0,0,0-7.2,2.5,5.94,5.94,0,0,0-2.1,5.2c-.6.9-3.4,1.6-5.5,1.7-.4,0,1.6-5.7,1.7-6.4a14.78,14.78,0,0,0,.6-8.2c-.3-1.9-1.1-3.8-1-4.3.3-1.4,4.4-1.2,4.4-.6a13.39,13.39,0,0,0,.6,4.9c.4,1,.2,1,1.4,1.7,2.7,1.6,7.9.9,10.9,2.4.6.3-.5-2.9-1.1-3.9a28.51,28.51,0,0,0-2.4-3.7c-3.3-3.6-5-2.1-7-3-.2-.1,3.3-4.8,2.7-7.4S177.6,8,176.2,7c-.7-.5-6.8,5.2-6.9,7.5-.3,4.1,1.8,3.3,1.2,4.6a2.18,2.18,0,0,1-1.9.9c-2.1-3.2-3.1-4.9-4.2-6.5-2.2-3.2,1-6.3-.4-8.9-2.6-5-5.4-4.2-7-4.2s-6,1.9-5.1,2.9c1.5,1.7,2.2,2.3,1.6,3.8a7,7,0,0,1-4.2-.3c-1.7-.9-2.7-3.4-8-2.3-2.6.6-5.8,7-6,8.1-.3,1.4,1.4-.4,3,.2A10.56,10.56,0,0,0,143,14c3.7-.3,5.4-4.4,5.9-4.9s2-.5,1.8-.1c-1.3,2.2-1.5,4.5.5,4.6,1.6.1.1-4.3,4.1-3.7s4,3.8,4,3.8-5-.9-6,.5,4.2,3.2,3.4,5.9c-.2.8-2.7-.9-5-.4-2.1.5-6.4,4.3-4.7,5.6.5.4,1.3-.6,3.1.7,1.6,1.1,2,1.9,3.7,1.5,3.9-1,3.7-3.1,4.9-4.4a1.67,1.67,0,0,1,2.5-.1c.4.5.9.7-.1,1.2s-3.1,1.5-3.8,3.7-.8,5.7-.1,6.3,2.5-2,4.5-1.8c5,.4,4.1-9,4.9-7.2,1.8,4,.5,11.2-.4,10.9-3.1-1-4.8-.3-4.4,1,1,3.3,2.7-.2,3.9,2.4.5,1.1-3.1,7.2-3.6,5.5-.9-1.6-9.4-11.6-11.9-13.6A62.76,62.76,0,0,0,137,17.5c-5.9-4.5-13.5-10-22.8-10-17.3,0-26.1,10.9-27,11.4-2,1.1-2.1,2.5-5.9,3-10.4-.9-20.6-7.1-36.9,4.6h.1a47.48,47.48,0,0,0-10.4,12c-.5.8-1.4,2-1.7,2.6-.4,1.1.3,2.9.8,4,1.5,3.2,5.8,5.2,8.1,7.3.2.2.5.4.6.7,1.4,2,7.8,1.7,8.7,2.1,6.3,3.6,12.7,4.3,14.1,5.2.9.6.1,3.3-1.1,4s-4.3,1.1-9.1,1.7S50.6,71,49,70.2c-2-1-7.5-3.4-7.5-3.4-.3-.7,1.8-2.8,1.3-4.9-.4-1.7-2.7-2.7-3.7-3.6s-.9-2.8-1.3-2.7c-4.2.7-1.4,8.4-2.6,8.4-.6,0-4.8-5.1-4.9-5.3-.2-.7,2.3,0,3.5-3.5.7-1.9-.7-4.2-2-5.8-1.4-1.8-.1-2.3-.6-2.7-.1,0-5.9,3.7-5.2,8.1a21.63,21.63,0,0,1-3.2-2.7c-.4-.4,2.6-3.1,2.1-6.4-.4-2.6-2-4.7-5.8-6.9-2.5-1.4-1-3.5-2.9-2.3-1,.7-3.7,6.9-2.4,10.4,1.8,4.8,5,4.3,4.9,5-4.4.2-9.5,7.4-8.8,7.6s1-.8,2.3,0c2.7,1.7,4,2,6.1,1.9,1.6-.1,3.8-1.9,5.6-2,1.3-.1,4.8,4.7,4.8,4.7-8.2-.6-11.9.3-12.3-1.6-.2-.7-1.5-.9-2.1-.5-.8.6-.9,2.6-3,2.6-2.6,0-2.8-2-3.1-2.3C6.7,61-.7,59.5.8,68.5c.4.5,2.3-2.2,4.1-1.1a11.18,11.18,0,0,0-1.2,5.1c0,2.1,2.1,5.7,3.2,6.4l2.6-3.2c2.1-1.4,5-1.8,5.9-3.1,1.7-2.4-1.8-4.9-.2-5.3a31.64,31.64,0,0,1,13.1-.4c2.7.5,1.9.9,1.9.9-2.6,1.3-1.1,2.7-5.7,2.9-2.3.1-2.4-3.4-4.2-2.6-3.4,1.4-.5,3.5-.4,4.1s1.3.7,2,1.5-.9,2.7-1.1,2.6a6.86,6.86,0,0,0-4.3.4c1.7-.8-1.6,0-3,3.2-2.1,4.8,1.9,11.4,1.9,11.4,1-.1,7.3-5.6,8.1-8.9s-.5-4.4-.8-5.7h.1a3.31,3.31,0,0,1,1.5-2.1c.8-.7,2.5-1.3,2.4-1-.8,3-.5,6.7.3,6.4a17.83,17.83,0,0,0,4.2-3.2c3.4-3.2,1.9-7.3,2.8-8.3s4.2.8,5.7,1.4c.8.4,7.3,3,7.9,5.6.1.6-1.1,1-1.8,1.2-2.2.7-5.5.4-5.6,0h0c-.1-.3-.6.6-.8-1-.1-.6.3-.8.1-1.5-.2-.9-2-.5-2.6-.2a2.57,2.57,0,0,0-1,3.3c.6,1.2,2.6.4,3.2,1.9-.1-.2.2,1.3-1.8,1.4-3.3.1-3.7-.1-4.5,0a5.06,5.06,0,0,0-3.7,2.3c-1.2,2.1-2.7,6-2,6.3a21.38,21.38,0,0,0,7.1.4c2-.4,3.3-3,4-6.9a11.25,11.25,0,0,1,6.8-3c.6,0,.2,4.7-.2,4.8-5.2,1-4.4,4.6-6.6,5.8-.4.2,2.4,3.3,6.5,2.5,1.2-.2,3.8-1.4,2.8-.1-2.8,4,7,9.2,7.4,7.8s-.5-6-4.8-8c-2.4-1.1,2.4-4.9,3.4-1.8.4,1.2,4.9,5.7,7.7,4a10.06,10.06,0,0,1,.9-9c.5-.7.2-4.3-1.4-4.7s4.5-4.5,12.3-1.9c.8.3.7,2.3,0,2.4-6.2,1.1-3.3,7.2-3.3,7.2,5.9-.7,4.8-7.6,5-8.3s3-1,3.3.4-1.6,1.7-2.1,3.1c-1.1,2.9,2.4,2.6,2.7,2.4a7.32,7.32,0,0,0,2.7-4.7c8.8.2,10.7,7.9,10.4,7.6,1,1,4-1.7,3.3-2.6-4.9-6.8-9.1-7.5-9.4-7.8-.8-.8.9-1.3,1-2,.4-1.4.1-2.7-.9-3.1s-1.1-.4-2.1.1-.7,2-1.4,2.3-3.6-2.1-3.5-3c.2-1.5,4.1-1.7,4.9-1.1,1.2.9,11.6,1.4,14.6.7,2.1-.5,3.4,0,2.5-2-.8-1.8-2.8-11.6-.1-17.3,3.8-8.2,7.3-10.4,11-13.4,1.3-1.1.4,1.8.4,1.8-20.8,17.1-6,31.6-8.1,32.1-1.8.5-4,.7-6,1.3a22.9,22.9,0,0,0-5.2,2.1c-2,2.1.7,6.8,3.5,6.5,11.3-1.3,11.3-2.5,13-2.5,16.6,0,15.8-3.7,17-2.1,1.9,2.5-13.3,8.6-14,8.6-.8.2-.8.5-1.2,0,0,0,.1-.5.4-1.7a1.42,1.42,0,0,0-.7-1.5.89.89,0,0,0-1.2,0c-.9.7-1.1,3-1.8,3.6-8.3,8.4-34.6,6.6-34.6,6.6s-1.7,3.6,0,3.6c21.6,0,33-5.9,39.8-8.3s5,2,5.9,2.4c2.4,1.2,4.3-3.3,4.3-3.3s9.2,1.1,9.4,1.8c1.6,4.7,14.6,5.4,14.7,1.6l-1.1-.7c-6-10.1-11.4-2.4-12.6-2.6-4.7-.9-7.7-1.2-9.3-2.2-1-.6,4.9-2.9,6.5-1.5s-.2,1.5,1.8,1.9c1,.2,3.4-1.8,3.9-3.1.2-.6,14.5-1.5,14.5-.1,0-.5-1.2,5.6,3.1,7.7,1.3.6.9,3.2,1.7,3.3,2.7.2,5.4-4.3,5.5-9.3.1-2.7,12.9,7.2,11,8.8-5.2,4.4.6,9.2.6,9.2s4.3-2.7,1.9-9.1c0,0,1.8-.8,1.8.6,0,8.5,12.6,5.2,12.3,4.5-2.5-7.5-7.3-7.9-10.9-6.6s-6.2-4.6-6.2-4.6,11.4-.4,12.6,1.5a6.65,6.65,0,0,0,6.8,3.4c3.7-.4,7.9-6.2,7.7-8.2-.1-1.1-1.9.6-3.6-.5-2.3-1.4-6.6-1-7.1-.8-2,.9-2.3,1.8-3.3,2.6-1.2,1-1.6.8-2,.1.1.2,3.6-4.1,2.6-7.5a24.19,24.19,0,0,0,13-.6c7.5-2.4,8.8-7.9,8.9-12.1C207.6,64.1,207.1,59.7,201.3,56.6ZM77.3,77.7h0a87.94,87.94,0,0,0-10.7-1.6l-4-.1c-3.6-.1-6-.2-6.5-.2s-.7-.4-.7-1.1c.2-1.1,2.1-3.9,9.1-3.1a44.7,44.7,0,0,1,5.6,1c.9.2,1.6.4,2.3.5,1.8.3,2.9.4,3.6.5a4.4,4.4,0,0,0,.9.1c1.4.3,1.1,2.8,1,3.6l-.1.6ZM44.9,39.2l-.3.8-.2.5-.3.5-.4-.4-.2-.2a1.05,1.05,0,0,1-.9-.5,2.58,2.58,0,0,1,0-2.8,2.13,2.13,0,0,1,2.7-.6c.4.1,1.4.5,1.3,1.4C46.5,38.5,46,38.9,44.9,39.2ZM90,62.7c0,.7-.7,1.2-1.2,1.6h0c-.2.1-5.4,3-8.8.2a15.3,15.3,0,0,0-1.5,2.3c1.2-.6,3.1-1.1,4.1-.1a1.53,1.53,0,0,1,.4,2,2.88,2.88,0,0,1-2.9,1.1c-.9-.2-1.5-.1-1.7.2s0,1.5.3,2.1l.1.3-.1.3c-.1.3-.6,1.1-1.3,1.1s-1-.9-1.1-1.2a14.67,14.67,0,0,1-.6-6.4,2.53,2.53,0,0,1-1.7-1c-1.8-2.1-1.3-6.7-1.3-6.9l.1-.5h.5c2.9,0,4.1,2.1,4.8,3.4.2.3.4.8.6.9a6,6,0,0,0,.8-.8,4.39,4.39,0,0,1,3.7-2,4.69,4.69,0,0,1,3.3,1.1c.3.2.5.4.8.4a2.9,2.9,0,0,1,1.7,1c.1.1.2.2.3.2A.62.62,0,0,1,90,62.7Zm84.9-2.9c-.1.5-.7.7-2,.9-1.6.2-6.3.2-7.4-1.8-.3-.5-.4-1.4.6-2.7,1.2-1.4,3.4-1.6,5.7-.4C173.7,56.8,175.3,58.4,174.9,59.8Zm6,18.3c-.1.6-.7.8-1.5,1.1-1.8.6-4.5,1.6-4.5,5.5A1.38,1.38,0,0,1,174,86a2.93,2.93,0,0,1-2.9-.5.8.8,0,0,1-.2-.9c.6-1.5.9-3.6.5-4.1a1.08,1.08,0,0,0-.8-.2,1.06,1.06,0,0,0-.7.6,1.51,1.51,0,0,0,.1,1.3c.4.9-.4,1.8-.4,1.9l-.1.1h-.1c-3.5,1.4-5.4.2-5.9-.2a1.71,1.71,0,0,1-.7-1.3c.1-.3.2-.5.5-.5,3.3-1.1,3.8-3,4.1-4.6.2-1,.4-1.9,1.4-2.3a2.73,2.73,0,0,0,1.2-.6,1.38,1.38,0,0,0-.4-.3c-3.8-1.6-6.9-1.9-9.1-1a5.67,5.67,0,0,0-3,3.2.1.1,0,0,1-.1.1,10.08,10.08,0,0,0-.4,2c-.1,1.2-.2,2.3-1,2.8s-3.3-.4-4-1.1a1,1,0,0,1-.2-1.2c2.8-3.9,2.9-5.1,2.7-5.7a1.72,1.72,0,0,0-1.8-1.3,3,3,0,0,0-1.7.8,8,8,0,0,0-.1,2.8c.1,1.4.1,2.1-.2,2.5-.1.2-.3.4-.4.6a2.92,2.92,0,0,1-3,1.8H147a36.52,36.52,0,0,0-5.8-.1,21.76,21.76,0,0,0-5.7.9,5.71,5.71,0,0,1-2.4.4,1.33,1.33,0,0,1-1-.6A3,3,0,0,1,132,79c0-.3.1-.6.1-.8-.3,0-.8.1-1.1.1-.8.1-1.4.3-1.7-.3a1.16,1.16,0,0,1,.3-1.3,60.94,60.94,0,0,1,9.7-8.7c.5-.3.7-.8.6-1-.8-.3-1.6-.7-1.6-1.4-.1-.5.2-.9.8-1.3.8-.5,2.8.2,4.1.7,6.1-3.9,13-11.6,17.5-17.6,1-1.3,1.9-1.2,2.2-1.1a1.6,1.6,0,0,1,.9,1.6c0,.5-.6,1.3-2.2,3.4a47.2,47.2,0,0,0-2.7,4,5,5,0,0,1,5.5,1.8,9.91,9.91,0,0,1,1.5,3.7h0c.1.4.2.9.3,1.3.3,1.1.5,2.2-.3,3l-.1.1a1.68,1.68,0,0,1-1.5.7,2.12,2.12,0,0,1-1.3-1,1.1,1.1,0,0,1-.1-1.1c.8-2.4.7-3.6.6-4a2.74,2.74,0,0,0-1.6-1.6c-1-.4-2.6-.6-5,.7-1.9,1.1-7.5,5.6-11.3,8.6-1.4,1.2-2.7,2.2-3.4,2.7h0c-.2.2-1.1.8-1.7,1.3-2.4,1.6-5,3.9-5.6,5.1a25.68,25.68,0,0,0,2.6-1.2c8.1-4,27-13.5,43,1.7A1.29,1.29,0,0,1,180.9,78.1ZM164.9,52c.4,0,1.2-.1,1.6.5a1.88,1.88,0,0,1-.2,1.9,8,8,0,0,0-.5,1.1c-.1.3-.3.7-.7.7s-.6-.4-.8-.9c-.5-1.3-.6-2.2-.3-2.8A1.05,1.05,0,0,1,164.9,52ZM58,80h0c-.1,0-2.3-.2-3.9,2.5a9.81,9.81,0,0,0-1.4,2.9.84.84,0,0,1-.7.7h-.1a2.2,2.2,0,0,1-1.4-.1c-.6-.4-.8-1.1-1.1-2.1a14.24,14.24,0,0,0-.5-1.6,4.22,4.22,0,0,1-.2-3.3,2.27,2.27,0,0,1,1.4-1.1c1.2-.3,7.4-1.9,8.6-.2.3.4.4,1-.2,1.9l-.2.3Z"/><path class="cls-1" d="M24.9,123.6v-3.3c0-6-.3-7.1-2.1-8-1.6-.8-2.1-1.3-2.1-2.3,0-2.2,2.2-3.4,6.4-3.4,2.3,0,4.5.3,6.7.3,3.7,0,7.3-.5,10.9-.5,8.1,0,13.5,4.1,13.5,10.2,0,7-5.6,7.8-5.6,9.1,0,.6.3.9,1.4,1.3,4.8,1.8,5.7,5.4,6.3,9.9.3,2.3.7,2.9,2.1,3.3,1.1.3,2.1.8,2.1,2.2,0,2.6-3.4,4.3-8.8,4.3-3.9,0-6.5-1-8.1-3-3.8-4.6-2.6-14.4-8.1-14.4-1.5,0-1.7.5-1.7,3.7,0,5.1.3,6.3,2,7.2a2.87,2.87,0,0,1,1.7,2.4c0,2.6-2.8,3.5-10.3,3.5-7.1,0-10.5-1.3-10.5-4,0-3.2,4.1,0,4.1-10.1Zm12.8-2.1c0,1.2.2,1.9,1.6,1.9,3.3,0,4.7-1.7,4.7-5.3s-1.3-5.5-3.9-5.5c-1.5,0-2,.6-2.1,2.3Z"/><path class="cls-1" d="M98.1,131.5c0,8.4-8,14.9-18.3,14.9-8.5,0-14.8-5.6-14.8-13.2,0-9.1,6.9-15.5,17.1-15.9C90.3,117.4,98.1,122.7,98.1,131.5Zm-20.4-4.2a35.3,35.3,0,0,0,2.1,9.8c.6,1.6,1.5,2.3,2.8,2.3,1.7,0,2.6-1,2.6-3.5a29.68,29.68,0,0,0-2.2-10,3,3,0,0,0-2.8-2C78.7,124,77.7,125.3,77.7,127.3Z"/><path class="cls-1" d="M133.1,131.5c0,8.4-8,14.9-18.3,14.9-8.5,0-14.8-5.6-14.8-13.2,0-9.1,6.9-15.5,17.1-15.9C125.3,117.4,133.1,122.7,133.1,131.5Zm-20.4-4.2a32.42,32.42,0,0,0,2.2,9.8c.6,1.6,1.5,2.3,2.8,2.3,1.7,0,2.6-1,2.6-3.5a29.68,29.68,0,0,0-2.2-10,3,3,0,0,0-2.8-2C113.7,124,112.7,125.3,112.7,127.3Z"/><path class="cls-1" d="M152,134.4c0,2.3,1.3,3.9,3,3.9,2.9,0,2.2-1.3,3.8-1.3,1.2,0,1.9,1.6,1.9,2.6,0,4.5-8.2,6.8-11.9,6.8-5.9,0-9.9-3.8-9.9-9.4V124c0-.9-.1-1-1-1H135c-1.1,0-1.3-.2-1.3-1.5v-1.3a1.31,1.31,0,0,1,.6-1.2l13-8.2a2,2,0,0,1,1.2-.2h2.3c.9,0,1.2.3,1.2,1.6v3.9c0,1.1.2,1.3,1.5,1.3h5.2c1.4,0,1.7.3,1.7,2v1.7c0,1.8-.5,2.4-1.9,2.4h-5.1c-1,0-1.4.3-1.4,1.3Z"/><path class="cls-1" d="M169.5,145.7a3.08,3.08,0,0,0-.9.1,4.18,4.18,0,0,1-.7.1.9.9,0,0,1-.5.1,2.56,2.56,0,0,1-2.6-1.3,12.24,12.24,0,0,1-2.6-6.6c0-1.6.8-2.6,2-2.6,3.1,0,4.3,5.5,7.8,5.5a1.85,1.85,0,0,0,2.1-1.9c0-2.7-10.8-4.1-10.8-12.3,0-5.5,4.2-9.4,10-9.4,2,0,3.8.8,5.8.8,1,0,1.9-.8,3-.8,2.5,0,5.1,4.9,5.1,7.2a2.73,2.73,0,0,1-2.8,2.8c-3.1,0-4.6-4.4-7.3-4.4a2.06,2.06,0,0,0-2,1.9c0,3.4,12.1,4.3,12.1,12.8,0,4.9-4.7,8.8-10.8,8.8-1.3,0-2.6-.2-3.9-.3A9.93,9.93,0,0,0,169.5,145.7Z"/></svg>